<mxfile host="app.diagrams.net" modified="2024-05-18T12:20:43.161Z" agent="Mozilla/5.0 (Windows NT 10.0; Win64; x64) AppleWebKit/537.36 (KHTML, like Gecko) Chrome/125.0.0.0 Safari/537.36" etag="ishcqwwlZ20DfsyRgcCH" version="24.4.4" type="device">
  <diagram id="C5RBs43oDa-KdzZeNtuy" name="Page-1">
    <mxGraphModel dx="954" dy="558" grid="1" gridSize="10" guides="1" tooltips="1" connect="1" arrows="1" fold="1" page="1" pageScale="1" pageWidth="827" pageHeight="1169" math="0" shadow="0">
      <root>
        <mxCell id="WIyWlLk6GJQsqaUBKTNV-0" />
        <mxCell id="WIyWlLk6GJQsqaUBKTNV-1" parent="WIyWlLk6GJQsqaUBKTNV-0" />
        <mxCell id="WIyWlLk6GJQsqaUBKTNV-5" value="No" style="edgeStyle=orthogonalEdgeStyle;rounded=0;html=1;jettySize=auto;orthogonalLoop=1;fontSize=11;endArrow=block;endFill=0;endSize=8;strokeWidth=1;shadow=0;labelBackgroundColor=none;" parent="WIyWlLk6GJQsqaUBKTNV-1" source="WIyWlLk6GJQsqaUBKTNV-6" target="WIyWlLk6GJQsqaUBKTNV-7" edge="1">
          <mxGeometry y="10" relative="1" as="geometry">
            <mxPoint as="offset" />
          </mxGeometry>
        </mxCell>
        <mxCell id="v21urYHqk083a0oJisTc-6" value="YES" style="edgeStyle=orthogonalEdgeStyle;rounded=0;orthogonalLoop=1;jettySize=auto;html=1;" edge="1" parent="WIyWlLk6GJQsqaUBKTNV-1" source="WIyWlLk6GJQsqaUBKTNV-6" target="v21urYHqk083a0oJisTc-5">
          <mxGeometry relative="1" as="geometry" />
        </mxCell>
        <mxCell id="WIyWlLk6GJQsqaUBKTNV-6" value="유효한 API key인가?" style="rhombus;whiteSpace=wrap;html=1;shadow=0;fontFamily=Helvetica;fontSize=12;align=center;strokeWidth=1;spacing=6;spacingTop=-4;strokeColor=default;verticalAlign=middle;fontColor=default;fillColor=default;" parent="WIyWlLk6GJQsqaUBKTNV-1" vertex="1">
          <mxGeometry x="176" y="195" width="160" height="60" as="geometry" />
        </mxCell>
        <mxCell id="v21urYHqk083a0oJisTc-39" style="edgeStyle=orthogonalEdgeStyle;rounded=0;orthogonalLoop=1;jettySize=auto;html=1;entryX=0;entryY=0.75;entryDx=0;entryDy=0;exitX=0.5;exitY=0;exitDx=0;exitDy=0;" edge="1" parent="WIyWlLk6GJQsqaUBKTNV-1" source="WIyWlLk6GJQsqaUBKTNV-7" target="v21urYHqk083a0oJisTc-0">
          <mxGeometry relative="1" as="geometry" />
        </mxCell>
        <mxCell id="WIyWlLk6GJQsqaUBKTNV-7" value="에러 메세지 출력" style="rounded=1;whiteSpace=wrap;html=1;fontSize=12;glass=0;strokeWidth=1;shadow=0;" parent="WIyWlLk6GJQsqaUBKTNV-1" vertex="1">
          <mxGeometry x="41" y="210" width="100" height="30" as="geometry" />
        </mxCell>
        <mxCell id="v21urYHqk083a0oJisTc-3" value="" style="edgeStyle=orthogonalEdgeStyle;rounded=0;orthogonalLoop=1;jettySize=auto;html=1;" edge="1" parent="WIyWlLk6GJQsqaUBKTNV-1" source="v21urYHqk083a0oJisTc-0" target="WIyWlLk6GJQsqaUBKTNV-6">
          <mxGeometry relative="1" as="geometry" />
        </mxCell>
        <mxCell id="v21urYHqk083a0oJisTc-0" value="API key 입력" style="html=1;strokeWidth=1;shape=manualInput;whiteSpace=wrap;rounded=1;size=13;arcSize=11;strokeColor=default;align=center;verticalAlign=middle;fontFamily=Helvetica;fontSize=12;fontColor=default;fillColor=default;" vertex="1" parent="WIyWlLk6GJQsqaUBKTNV-1">
          <mxGeometry x="186" y="110" width="140" height="40" as="geometry" />
        </mxCell>
        <mxCell id="v21urYHqk083a0oJisTc-2" value="" style="edgeStyle=orthogonalEdgeStyle;rounded=0;orthogonalLoop=1;jettySize=auto;html=1;" edge="1" parent="WIyWlLk6GJQsqaUBKTNV-1" source="v21urYHqk083a0oJisTc-1" target="v21urYHqk083a0oJisTc-0">
          <mxGeometry relative="1" as="geometry" />
        </mxCell>
        <mxCell id="v21urYHqk083a0oJisTc-1" value="시작" style="ellipse;whiteSpace=wrap;html=1;" vertex="1" parent="WIyWlLk6GJQsqaUBKTNV-1">
          <mxGeometry x="196" y="40" width="120" height="40" as="geometry" />
        </mxCell>
        <mxCell id="v21urYHqk083a0oJisTc-8" value="" style="edgeStyle=orthogonalEdgeStyle;rounded=0;orthogonalLoop=1;jettySize=auto;html=1;" edge="1" parent="WIyWlLk6GJQsqaUBKTNV-1" source="v21urYHqk083a0oJisTc-5" target="v21urYHqk083a0oJisTc-7">
          <mxGeometry relative="1" as="geometry" />
        </mxCell>
        <mxCell id="v21urYHqk083a0oJisTc-43" style="edgeStyle=orthogonalEdgeStyle;rounded=1;orthogonalLoop=1;jettySize=auto;html=1;entryX=0;entryY=0.5;entryDx=0;entryDy=0;curved=0;dashed=1;" edge="1" parent="WIyWlLk6GJQsqaUBKTNV-1" source="v21urYHqk083a0oJisTc-5" target="v21urYHqk083a0oJisTc-36">
          <mxGeometry relative="1" as="geometry" />
        </mxCell>
        <mxCell id="v21urYHqk083a0oJisTc-44" style="edgeStyle=orthogonalEdgeStyle;rounded=1;orthogonalLoop=1;jettySize=auto;html=1;entryX=0;entryY=0.5;entryDx=0;entryDy=0;curved=0;dashed=1;" edge="1" parent="WIyWlLk6GJQsqaUBKTNV-1" source="v21urYHqk083a0oJisTc-5" target="v21urYHqk083a0oJisTc-27">
          <mxGeometry relative="1" as="geometry" />
        </mxCell>
        <mxCell id="v21urYHqk083a0oJisTc-45" value="Meta 정보" style="edgeLabel;html=1;align=center;verticalAlign=middle;resizable=0;points=[];" vertex="1" connectable="0" parent="v21urYHqk083a0oJisTc-44">
          <mxGeometry x="-0.5323" y="2" relative="1" as="geometry">
            <mxPoint x="33" y="2" as="offset" />
          </mxGeometry>
        </mxCell>
        <mxCell id="v21urYHqk083a0oJisTc-5" value="PDF 파일 업로드" style="shape=parallelogram;perimeter=parallelogramPerimeter;whiteSpace=wrap;html=1;fixedSize=1;" vertex="1" parent="WIyWlLk6GJQsqaUBKTNV-1">
          <mxGeometry x="186" y="300" width="140" height="50" as="geometry" />
        </mxCell>
        <mxCell id="v21urYHqk083a0oJisTc-13" value="No" style="edgeStyle=orthogonalEdgeStyle;rounded=0;orthogonalLoop=1;jettySize=auto;html=1;entryX=0.75;entryY=1;entryDx=0;entryDy=0;exitX=0;exitY=0.5;exitDx=0;exitDy=0;" edge="1" parent="WIyWlLk6GJQsqaUBKTNV-1" source="v21urYHqk083a0oJisTc-7" target="v21urYHqk083a0oJisTc-11">
          <mxGeometry x="-0.387" y="-8" relative="1" as="geometry">
            <mxPoint as="offset" />
          </mxGeometry>
        </mxCell>
        <mxCell id="v21urYHqk083a0oJisTc-7" value="기존에 구성했던&lt;div&gt;PDF 파일인가?&lt;/div&gt;" style="rhombus;whiteSpace=wrap;html=1;shadow=0;fontFamily=Helvetica;fontSize=12;align=center;strokeWidth=1;spacing=6;spacingTop=-4;strokeColor=default;verticalAlign=middle;fontColor=default;fillColor=default;" vertex="1" parent="WIyWlLk6GJQsqaUBKTNV-1">
          <mxGeometry x="176" y="410.75" width="160" height="75" as="geometry" />
        </mxCell>
        <mxCell id="v21urYHqk083a0oJisTc-37" value="" style="edgeStyle=orthogonalEdgeStyle;rounded=0;orthogonalLoop=1;jettySize=auto;html=1;entryX=0.25;entryY=0;entryDx=0;entryDy=0;" edge="1" parent="WIyWlLk6GJQsqaUBKTNV-1" source="v21urYHqk083a0oJisTc-9" target="v21urYHqk083a0oJisTc-36">
          <mxGeometry relative="1" as="geometry" />
        </mxCell>
        <mxCell id="v21urYHqk083a0oJisTc-9" value="반환된 Documents" style="strokeWidth=1;html=1;shape=mxgraph.flowchart.multi-document;whiteSpace=wrap;" vertex="1" parent="WIyWlLk6GJQsqaUBKTNV-1">
          <mxGeometry x="501" y="350" width="99" height="50" as="geometry" />
        </mxCell>
        <mxCell id="v21urYHqk083a0oJisTc-19" value="" style="edgeStyle=orthogonalEdgeStyle;rounded=0;orthogonalLoop=1;jettySize=auto;html=1;exitX=0.25;exitY=1;exitDx=0;exitDy=0;" edge="1" parent="WIyWlLk6GJQsqaUBKTNV-1" source="v21urYHqk083a0oJisTc-11" target="v21urYHqk083a0oJisTc-16">
          <mxGeometry relative="1" as="geometry" />
        </mxCell>
        <mxCell id="v21urYHqk083a0oJisTc-11" value="vectorStore 신규 구성 및&amp;nbsp;&lt;span style=&quot;background-color: initial;&quot;&gt;저장소에 저장&lt;/span&gt;" style="whiteSpace=wrap;html=1;shadow=0;strokeWidth=1;spacing=6;spacingTop=-4;strokeColor=default;align=center;verticalAlign=middle;fontFamily=Helvetica;fontSize=12;fontColor=default;fillColor=default;" vertex="1" parent="WIyWlLk6GJQsqaUBKTNV-1">
          <mxGeometry x="41" y="360" width="118" height="50" as="geometry" />
        </mxCell>
        <mxCell id="v21urYHqk083a0oJisTc-18" value="Yes" style="edgeStyle=orthogonalEdgeStyle;rounded=0;orthogonalLoop=1;jettySize=auto;html=1;strokeColor=default;exitX=0.5;exitY=1;exitDx=0;exitDy=0;" edge="1" parent="WIyWlLk6GJQsqaUBKTNV-1" source="v21urYHqk083a0oJisTc-7" target="v21urYHqk083a0oJisTc-16">
          <mxGeometry x="0.0416" y="-8" relative="1" as="geometry">
            <mxPoint x="150" y="490" as="targetPoint" />
            <Array as="points">
              <mxPoint x="256" y="520" />
            </Array>
            <mxPoint as="offset" />
          </mxGeometry>
        </mxCell>
        <mxCell id="v21urYHqk083a0oJisTc-40" style="edgeStyle=orthogonalEdgeStyle;rounded=0;orthogonalLoop=1;jettySize=auto;html=1;entryX=0;entryY=0.5;entryDx=0;entryDy=0;exitX=0.5;exitY=1;exitDx=0;exitDy=0;" edge="1" parent="WIyWlLk6GJQsqaUBKTNV-1" source="v21urYHqk083a0oJisTc-16" target="v21urYHqk083a0oJisTc-42">
          <mxGeometry relative="1" as="geometry">
            <mxPoint x="196" y="505" as="targetPoint" />
          </mxGeometry>
        </mxCell>
        <mxCell id="v21urYHqk083a0oJisTc-16" value="vectorStore&lt;div&gt;불러오기&lt;/div&gt;" style="shape=parallelogram;perimeter=parallelogramPerimeter;whiteSpace=wrap;html=1;fixedSize=1;" vertex="1" parent="WIyWlLk6GJQsqaUBKTNV-1">
          <mxGeometry x="10" y="485.75" width="120" height="52.5" as="geometry" />
        </mxCell>
        <mxCell id="v21urYHqk083a0oJisTc-28" value="" style="edgeStyle=orthogonalEdgeStyle;rounded=0;orthogonalLoop=1;jettySize=auto;html=1;" edge="1" parent="WIyWlLk6GJQsqaUBKTNV-1" source="v21urYHqk083a0oJisTc-21" target="v21urYHqk083a0oJisTc-27">
          <mxGeometry relative="1" as="geometry" />
        </mxCell>
        <mxCell id="v21urYHqk083a0oJisTc-21" value="사용자 질문" style="html=1;strokeWidth=1;shape=manualInput;whiteSpace=wrap;rounded=1;size=13;arcSize=11;strokeColor=default;align=center;verticalAlign=middle;fontFamily=Helvetica;fontSize=12;fontColor=default;fillColor=default;" vertex="1" parent="WIyWlLk6GJQsqaUBKTNV-1">
          <mxGeometry x="575" y="60" width="110" height="40" as="geometry" />
        </mxCell>
        <mxCell id="v21urYHqk083a0oJisTc-41" style="edgeStyle=orthogonalEdgeStyle;rounded=0;orthogonalLoop=1;jettySize=auto;html=1;entryX=0.5;entryY=0;entryDx=0;entryDy=0;exitX=1;exitY=0.5;exitDx=0;exitDy=0;" edge="1" parent="WIyWlLk6GJQsqaUBKTNV-1" source="v21urYHqk083a0oJisTc-42" target="v21urYHqk083a0oJisTc-21">
          <mxGeometry relative="1" as="geometry">
            <mxPoint x="316" y="505" as="sourcePoint" />
            <Array as="points">
              <mxPoint x="380" y="585" />
              <mxPoint x="380" y="40" />
              <mxPoint x="630" y="40" />
            </Array>
          </mxGeometry>
        </mxCell>
        <mxCell id="v21urYHqk083a0oJisTc-32" value="" style="edgeStyle=orthogonalEdgeStyle;rounded=0;orthogonalLoop=1;jettySize=auto;html=1;" edge="1" parent="WIyWlLk6GJQsqaUBKTNV-1" source="v21urYHqk083a0oJisTc-27" target="v21urYHqk083a0oJisTc-31">
          <mxGeometry relative="1" as="geometry" />
        </mxCell>
        <mxCell id="v21urYHqk083a0oJisTc-27" value="Q Chain" style="rounded=0;whiteSpace=wrap;html=1;" vertex="1" parent="WIyWlLk6GJQsqaUBKTNV-1">
          <mxGeometry x="575" y="130" width="110" height="40" as="geometry" />
        </mxCell>
        <mxCell id="v21urYHqk083a0oJisTc-34" value="" style="edgeStyle=orthogonalEdgeStyle;rounded=0;orthogonalLoop=1;jettySize=auto;html=1;" edge="1" parent="WIyWlLk6GJQsqaUBKTNV-1" source="v21urYHqk083a0oJisTc-31" target="v21urYHqk083a0oJisTc-33">
          <mxGeometry relative="1" as="geometry" />
        </mxCell>
        <mxCell id="v21urYHqk083a0oJisTc-38" style="edgeStyle=orthogonalEdgeStyle;rounded=0;orthogonalLoop=1;jettySize=auto;html=1;entryX=0.75;entryY=0;entryDx=0;entryDy=0;exitX=0.75;exitY=1;exitDx=0;exitDy=0;" edge="1" parent="WIyWlLk6GJQsqaUBKTNV-1" source="v21urYHqk083a0oJisTc-31" target="v21urYHqk083a0oJisTc-36">
          <mxGeometry relative="1" as="geometry">
            <mxPoint x="650" y="270" as="sourcePoint" />
          </mxGeometry>
        </mxCell>
        <mxCell id="v21urYHqk083a0oJisTc-31" value="편집된 질문&amp;nbsp;&lt;div&gt;&amp;amp; 언어 정보&lt;/div&gt;" style="shape=parallelogram;perimeter=parallelogramPerimeter;whiteSpace=wrap;html=1;fixedSize=1;rounded=0;strokeColor=default;align=center;verticalAlign=middle;fontFamily=Helvetica;fontSize=12;fontColor=default;fillColor=default;" vertex="1" parent="WIyWlLk6GJQsqaUBKTNV-1">
          <mxGeometry x="570" y="190" width="120" height="40" as="geometry" />
        </mxCell>
        <mxCell id="v21urYHqk083a0oJisTc-35" value="" style="edgeStyle=orthogonalEdgeStyle;rounded=0;orthogonalLoop=1;jettySize=auto;html=1;" edge="1" parent="WIyWlLk6GJQsqaUBKTNV-1" source="v21urYHqk083a0oJisTc-33" target="v21urYHqk083a0oJisTc-9">
          <mxGeometry relative="1" as="geometry" />
        </mxCell>
        <mxCell id="v21urYHqk083a0oJisTc-33" value="Retriever에서 유사한&lt;div&gt;Document 검색&lt;/div&gt;" style="rounded=0;whiteSpace=wrap;html=1;" vertex="1" parent="WIyWlLk6GJQsqaUBKTNV-1">
          <mxGeometry x="490" y="280" width="120" height="40" as="geometry" />
        </mxCell>
        <mxCell id="v21urYHqk083a0oJisTc-48" value="" style="edgeStyle=orthogonalEdgeStyle;rounded=0;orthogonalLoop=1;jettySize=auto;html=1;" edge="1" parent="WIyWlLk6GJQsqaUBKTNV-1" source="v21urYHqk083a0oJisTc-36" target="v21urYHqk083a0oJisTc-46">
          <mxGeometry relative="1" as="geometry" />
        </mxCell>
        <mxCell id="v21urYHqk083a0oJisTc-36" value="A Chain" style="rounded=0;whiteSpace=wrap;html=1;" vertex="1" parent="WIyWlLk6GJQsqaUBKTNV-1">
          <mxGeometry x="574" y="440" width="115" height="40" as="geometry" />
        </mxCell>
        <mxCell id="v21urYHqk083a0oJisTc-42" value="체인 준비 완료" style="rounded=0;whiteSpace=wrap;html=1;" vertex="1" parent="WIyWlLk6GJQsqaUBKTNV-1">
          <mxGeometry x="196" y="555" width="120" height="60" as="geometry" />
        </mxCell>
        <mxCell id="v21urYHqk083a0oJisTc-47" value="다회 반복" style="edgeStyle=orthogonalEdgeStyle;rounded=0;orthogonalLoop=1;jettySize=auto;html=1;entryX=1;entryY=0.5;entryDx=0;entryDy=0;exitX=1;exitY=0.5;exitDx=0;exitDy=0;" edge="1" parent="WIyWlLk6GJQsqaUBKTNV-1" source="v21urYHqk083a0oJisTc-46" target="v21urYHqk083a0oJisTc-21">
          <mxGeometry x="0.0296" y="-30" relative="1" as="geometry">
            <mxPoint x="720" y="540" as="sourcePoint" />
            <Array as="points">
              <mxPoint x="760" y="540" />
              <mxPoint x="760" y="80" />
            </Array>
            <mxPoint as="offset" />
          </mxGeometry>
        </mxCell>
        <mxCell id="v21urYHqk083a0oJisTc-52" value="" style="edgeStyle=orthogonalEdgeStyle;rounded=0;orthogonalLoop=1;jettySize=auto;html=1;" edge="1" parent="WIyWlLk6GJQsqaUBKTNV-1" source="v21urYHqk083a0oJisTc-46" target="v21urYHqk083a0oJisTc-51">
          <mxGeometry relative="1" as="geometry" />
        </mxCell>
        <mxCell id="v21urYHqk083a0oJisTc-46" value="답변 출력" style="shape=parallelogram;perimeter=parallelogramPerimeter;whiteSpace=wrap;html=1;fixedSize=1;rounded=0;strokeColor=default;align=center;verticalAlign=middle;fontFamily=Helvetica;fontSize=12;fontColor=default;fillColor=default;" vertex="1" parent="WIyWlLk6GJQsqaUBKTNV-1">
          <mxGeometry x="566" y="520" width="131" height="40" as="geometry" />
        </mxCell>
        <mxCell id="v21urYHqk083a0oJisTc-51" value="종료" style="ellipse;whiteSpace=wrap;html=1;" vertex="1" parent="WIyWlLk6GJQsqaUBKTNV-1">
          <mxGeometry x="571.5" y="600" width="120" height="50" as="geometry" />
        </mxCell>
      </root>
    </mxGraphModel>
  </diagram>
</mxfile>
